<svg width="24" height="24" viewBox="0 0 24 24" fill="none" xmlns="http://www.w3.org/2000/svg">
<rect width="24" height="24" transform="translate(0 0.000488281)" fill="#283344"/>
<path d="M6.40678 8.59391C6.1354 8.33513 6.00002 8.01496 6.00002 7.63401C6.00002 7.25306 6.1354 6.91844 6.40678 6.65966C6.67815 6.40088 7.02747 6.27148 7.45592 6.27148C7.88437 6.27148 8.21964 6.40088 8.49043 6.65966C8.7618 6.91844 8.89719 7.24343 8.89719 7.63401C8.89719 8.02459 8.7618 8.33513 8.49043 8.59391C8.21905 8.85269 7.87441 8.98208 7.45592 8.98208C7.03743 8.98208 6.67815 8.85269 6.40678 8.59391ZM8.66859 10.078V18.0082H6.2286V10.078H8.66859Z" fill="#FEFFFC"/>
<path d="M16.7933 10.8609C17.3249 11.4537 17.591 12.268 17.591 13.3043V17.8685H15.2729V13.6263C15.2729 13.1039 15.1411 12.6977 14.8773 12.4082C14.6136 12.1187 14.259 11.9743 13.8135 11.9743C13.3681 11.9743 13.0134 12.1193 12.7497 12.4082C12.4859 12.6977 12.3541 13.1039 12.3541 13.6263V17.8685H10.0225V10.0563H12.3541V11.0926C12.5903 10.7472 12.9085 10.4746 13.3089 10.2736C13.7086 10.0732 14.1587 9.97266 14.6587 9.97266C15.5496 9.97266 16.2611 10.2693 16.7927 10.8615L16.7933 10.8609Z" fill="#FEFFFC"/>
</svg>
