<svg width="379" height="147" viewBox="0 0 379 147" fill="none" xmlns="http://www.w3.org/2000/svg">
<path d="M119.301 89.7001L129.001 64.1001H131.601L141.301 89.7001H138.801L136.401 83.2001H124.101L121.701 89.7001H119.301ZM124.701 81.5001H135.801L130.201 66.5001L124.701 81.5001Z" fill="black"/>
<path d="M141.301 90.1001H138.801C138.601 90.1001 138.401 90.0001 138.401 89.8001L136.101 83.6001H124.401L122.101 89.8001C122.001 90.0001 121.901 90.1001 121.701 90.1001H119.301C119.201 90.1001 119.001 90.0001 118.901 89.9001C118.801 89.8001 118.801 89.6001 118.801 89.5001L128.501 63.9001C128.601 63.7001 128.701 63.6001 128.901 63.6001H131.501C131.701 63.6001 131.901 63.7001 131.901 63.9001L141.601 89.5001C141.701 89.6001 141.601 89.8001 141.501 89.9001C141.401 90.0001 141.401 90.1001 141.301 90.1001ZM139.101 89.3001H140.601L131.201 64.6001H129.201L120.001 89.3001H121.501L123.801 83.1001C123.901 82.9001 124.001 82.8001 124.201 82.8001H136.501C136.701 82.8001 136.901 82.9001 136.901 83.1001L139.101 89.3001ZM135.801 82.0001H124.701C124.601 82.0001 124.401 81.9001 124.301 81.8001C124.201 81.7001 124.201 81.5001 124.201 81.4001L129.701 66.4001C129.801 66.2001 129.901 66.1001 130.101 66.1001C130.301 66.1001 130.501 66.2001 130.501 66.4001L136.101 81.4001C136.201 81.5001 136.101 81.7001 136.001 81.8001C136.101 81.9001 136.001 82.0001 135.801 82.0001ZM125.401 81.1001H135.201L130.301 67.8001L125.401 81.1001Z" fill="black"/>
<path d="M162.802 88.5001C165.802 88.5001 168.002 87.3001 168.002 84.5001V82.6001H170.202V84.9001C170.202 88.2001 167.602 90.1001 162.802 90.1001C157.702 90.1001 155.102 88.2001 155.102 84.9001V75.4001C155.102 72.1001 157.702 70.2001 162.802 70.2001C167.602 70.2001 170.202 72.1001 170.202 75.4001V78.0001H168.002V75.7001C168.002 72.9001 166.102 71.7001 162.802 71.7001C159.102 71.7001 157.302 72.9001 157.302 75.7001V84.4001C157.402 87.2001 159.402 88.5001 162.802 88.5001Z" fill="black"/>
<path d="M162.802 90.5001C157.502 90.5001 154.602 88.5001 154.602 84.8001V75.3001C154.602 71.6001 157.502 69.6001 162.802 69.6001C167.802 69.6001 170.602 71.7001 170.602 75.3001V78.0001C170.602 78.2001 170.402 78.4001 170.202 78.4001H168.002C167.802 78.4001 167.602 78.2001 167.602 78.0001V75.7001C167.602 73.3001 166.002 72.1001 162.802 72.1001C159.302 72.1001 157.802 73.2001 157.802 75.7001V84.4001C157.802 86.8001 159.402 88.0001 162.802 88.0001C164.602 88.0001 167.602 87.5001 167.602 84.4001V82.5001C167.602 82.3001 167.802 82.1001 168.002 82.1001H170.202C170.402 82.1001 170.602 82.3001 170.602 82.5001V84.8001C170.702 88.4001 167.802 90.5001 162.802 90.5001ZM162.802 70.6001C159.502 70.6001 155.502 71.4001 155.502 75.4001V84.9001C155.502 88.9001 159.502 89.7001 162.802 89.7001C167.302 89.7001 169.802 88.0001 169.802 84.9001V83.0001H168.502V84.5001C168.502 87.3001 166.402 89.0001 162.902 89.0001C158.002 89.0001 157.002 86.6001 157.002 84.5001V75.8001C157.002 72.8001 158.902 71.3001 162.902 71.3001C167.602 71.3001 168.502 73.7001 168.502 75.8001V77.6001H169.802V75.4001C169.802 72.3001 167.302 70.6001 162.802 70.6001Z" fill="black"/>
<path d="M176 89.7001V64.1001H178.2V71.8001C180 71.0001 182.3 70.2001 184.8 70.2001C188.5 70.2001 190.3 72.0001 190.3 75.0001V89.8001H188V75.3001C188 72.8001 186.6 71.8001 184.4 71.8001C182.4 71.8001 180 72.7001 178.3 73.5001V89.7001H176Z" fill="black"/>
<path d="M190.202 90.1001H188.002C187.802 90.1001 187.602 89.9001 187.602 89.7001V75.3001C187.602 73.2001 186.602 72.2001 184.402 72.2001C182.302 72.2001 179.902 73.2001 178.702 73.7001V89.7001C178.702 89.9001 178.502 90.1001 178.302 90.1001H176.002C175.802 90.1001 175.602 89.9001 175.602 89.7001V64.1001C175.602 63.9001 175.802 63.7001 176.002 63.7001H178.202C178.402 63.7001 178.602 63.9001 178.602 64.1001V71.1001C180.202 70.4001 182.402 69.7001 184.702 69.7001C188.502 69.7001 190.602 71.6001 190.602 74.9001V89.7001C190.702 89.9001 190.502 90.1001 190.202 90.1001ZM188.402 89.3001H189.802V74.9001C189.802 73.5001 189.402 72.5001 188.602 71.7001C187.802 70.9001 186.502 70.5001 184.802 70.5001C182.402 70.5001 180.002 71.4001 178.402 72.1001C178.302 72.2001 178.102 72.1001 178.002 72.1001C177.902 72.0001 177.802 71.9001 177.802 71.7001V64.5001H176.402V89.2001H177.802V73.5001C177.802 73.3001 177.902 73.2001 178.102 73.1001C179.202 72.6001 182.002 71.3001 184.402 71.3001C187.102 71.3001 188.502 72.7001 188.502 75.3001V89.3001H188.402Z" fill="black"/>
<path d="M203.602 88.5001C207.002 88.5001 209.102 87.2001 209.102 84.1001V83.3001H211.302V84.5001C211.302 88.0001 208.402 90.1001 203.502 90.1001C198.802 90.1001 196.102 88.1001 196.102 84.5001V75.7001C196.102 72.2001 198.802 70.1001 203.502 70.1001C208.402 70.1001 211.302 72.1001 211.302 75.7001V80.9001H198.402V84.1001C198.402 87.2001 200.002 88.5001 203.602 88.5001ZM198.402 79.4001H209.102V76.1001C209.102 73.0001 206.902 71.7001 203.602 71.7001C200.102 71.7001 198.402 73.0001 198.402 76.1001V79.4001Z" fill="black"/>
<path d="M203.601 90.5001C201.201 90.5001 199.201 90.0001 197.901 89.0001C196.501 88.0001 195.801 86.4001 195.801 84.5001V75.7001C195.801 73.8001 196.501 72.3001 197.901 71.2001C199.301 70.2001 201.201 69.7001 203.601 69.7001C208.701 69.7001 211.801 71.9001 211.801 75.7001V80.9001C211.801 81.1001 211.601 81.3001 211.401 81.3001H198.901V84.1001C198.901 86.9001 200.301 88.0001 203.601 88.0001C207.001 88.0001 208.701 86.7001 208.701 84.1001V83.3001C208.701 83.1001 208.901 82.9001 209.101 82.9001H211.301C211.501 82.9001 211.701 83.1001 211.701 83.3001V84.5001C211.801 88.3001 208.701 90.5001 203.601 90.5001ZM203.601 70.6001C201.401 70.6001 199.601 71.1001 198.401 72.0001C197.201 72.9001 196.601 74.1001 196.601 75.7001V84.5001C196.601 86.1001 197.201 87.4001 198.401 88.2001C199.601 89.1001 201.401 89.6001 203.601 89.6001C208.301 89.6001 210.901 87.7001 210.901 84.5001V83.7001H209.501V84.1001C209.501 87.2001 207.401 88.9001 203.501 88.9001C199.701 88.9001 197.901 87.4001 197.901 84.1001V80.9001C197.901 80.7001 198.101 80.5001 198.301 80.5001H210.801V75.7001C210.901 72.4001 208.201 70.6001 203.601 70.6001ZM209.101 79.9001H198.401C198.201 79.9001 198.001 79.7001 198.001 79.5001V76.2001C198.001 72.9001 199.801 71.4001 203.601 71.4001C207.401 71.4001 209.601 73.1001 209.601 76.2001V79.5001C209.501 79.7001 209.301 79.9001 209.101 79.9001ZM198.901 79.0001H208.701V76.1001C208.701 73.5001 207.001 72.2001 203.601 72.2001C200.301 72.2001 198.901 73.3001 198.901 76.1001V79.0001Z" fill="black"/>
<path d="M219.002 71.7001C220.402 71.0001 222.602 70.1001 224.802 70.1001C227.102 70.1001 228.702 70.8001 229.602 72.0001C231.602 70.9001 234.002 70.1001 236.402 70.1001C240.002 70.1001 242.002 72.1001 242.002 75.2001V89.7001H239.802V75.5001C239.802 73.1001 238.702 71.7001 236.102 71.7001C234.202 71.7001 232.202 72.4001 230.402 73.5001C230.502 74.0001 230.602 74.6001 230.602 75.2001V89.7001H228.402V75.5001C228.402 73.1001 227.302 71.7001 224.702 71.7001C222.502 71.7001 220.702 72.4001 219.302 73.3001V89.8001H217.102V70.3001H218.802L219.002 71.7001Z" fill="black"/>
<path d="M242.1 90.1001H239.9C239.7 90.1001 239.5 89.9001 239.5 89.7001V75.5001C239.5 73.2001 238.4 72.1001 236.2 72.1001C234.6 72.1001 232.9 72.6001 231 73.7001C231.1 74.2001 231.2 74.7001 231.2 75.2001V89.7001C231.2 89.9001 231 90.1001 230.8 90.1001H228.6C228.4 90.1001 228.2 89.9001 228.2 89.7001V75.5001C228.2 73.2001 227.1 72.1001 224.9 72.1001C222.7 72.1001 221 72.8001 220 73.5001V89.7001C220 89.9001 219.8 90.1001 219.6 90.1001H217.4C217.2 90.1001 217 89.9001 217 89.7001V70.3001C217 70.1001 217.2 69.9001 217.4 69.9001H219.1C219.3 69.9001 219.5 70.0001 219.5 70.2001L219.7 71.0001C221.2 70.3001 223.2 69.6001 225.2 69.6001C227.4 69.6001 229.1 70.2001 230.2 71.4001C232.5 70.2001 234.8 69.6001 236.9 69.6001C240.7 69.6001 242.9 71.7001 242.9 75.1001V89.6001C242.6 89.9001 242.4 90.1001 242.1 90.1001ZM240.3 89.3001H241.7V75.3001C241.7 72.3001 239.9 70.7001 236.6 70.7001C234.5 70.7001 232.3 71.3001 230 72.6001C229.8 72.7001 229.6 72.7001 229.4 72.5001C228.6 71.4001 227 70.8001 224.9 70.8001C222.8 70.8001 220.7 71.6001 219.3 72.4001C219.2 72.5001 219 72.5001 218.9 72.4001C218.8 72.3001 218.7 72.2001 218.7 72.1001L218.5 71.1001H217.6V89.6001H219V73.6001C219 73.4001 219.1 73.3001 219.2 73.2001C220.4 72.5001 222.3 71.6001 224.8 71.6001C227.5 71.6001 229 73.1001 229 75.9001V89.6001H230.4V75.6001C230.4 75.1001 230.3 74.6001 230.2 74.0001C230.2 73.8001 230.2 73.6001 230.4 73.5001C232.5 72.3001 234.5 71.6001 236.3 71.6001C239 71.6001 240.5 73.1001 240.5 75.9001V89.3001H240.3Z" fill="black"/>
<path d="M263 70.5001L255.1 91.8001C253.5 96.1001 250.9 96.4001 248.5 96.4001C247.8 96.4001 247.1 96.4001 246.6 96.2001V94.6001C247.1 94.7001 247.7 94.8001 248.4 94.8001C250 94.8001 251.9 94.4001 253 91.3001L253.5 89.7001L246 70.5001H248.4L254.6 87.1001L260.4 70.5001H263Z" fill="black"/>
<path d="M248.501 96.9001C247.601 96.9001 247.001 96.8001 246.501 96.7001C246.301 96.6001 246.201 96.5001 246.201 96.3001V94.7001C246.201 94.6001 246.301 94.4001 246.401 94.3001C246.501 94.2001 246.701 94.2001 246.801 94.2001C247.301 94.3001 248.001 94.4001 248.501 94.4001C250.101 94.4001 251.701 94.0001 252.701 91.2001L253.101 89.7001L245.701 70.6001C245.601 70.5001 245.701 70.3001 245.701 70.2001C245.801 70.1001 245.901 70.0001 246.101 70.0001H248.501C248.701 70.0001 248.901 70.1001 248.901 70.3001L254.701 85.8001L260.101 70.3001C260.201 70.1001 260.301 70.0001 260.501 70.0001H263.001C263.101 70.0001 263.301 70.1001 263.401 70.2001C263.501 70.3001 263.501 70.5001 263.501 70.6001L255.501 92.0001C253.801 96.5001 251.001 96.9001 248.501 96.9001ZM247.001 95.9001C247.401 96.0001 247.901 96.0001 248.501 96.0001C250.801 96.0001 253.101 95.7001 254.601 91.7001L262.301 71.0001H260.801L255.101 87.3001C255.001 87.5001 254.901 87.6001 254.701 87.6001C254.501 87.6001 254.301 87.5001 254.301 87.3001L248.201 71.0001H246.701L254.001 89.6001C254.001 89.7001 254.001 89.8001 254.001 89.9001L253.501 91.5001C252.301 94.9001 250.201 95.3001 248.501 95.3001C247.901 95.3001 247.501 95.3001 247.101 95.2001V95.9001H247.001Z" fill="black"/>
<path d="M146.898 89.7001V64.1001H149.098V71.8001C149.098 71.8001 149.098 72.9001 149.098 73.5001V89.7001H146.898Z" fill="black"/>
<path d="M149.1 90.1001H146.9C146.7 90.1001 146.5 89.9001 146.5 89.7001V64.1001C146.5 63.9001 146.7 63.7001 146.9 63.7001H149.1C149.3 63.7001 149.5 63.9001 149.5 64.1001V89.7001C149.6 89.9001 149.4 90.1001 149.1 90.1001ZM147.3 89.3001H148.7V64.5001H147.3V89.3001Z" fill="black"/>
<path d="M276.301 89.7001V64.1001H282.601C289.601 64.1001 292.301 66.7001 292.301 71.1001V72.7001C292.301 76.8001 289.601 79.3001 282.601 79.3001H278.801V89.7001H276.301ZM278.801 65.8001V77.6001H282.701C287.701 77.6001 289.901 76.2001 289.901 72.7001V71.2001C289.901 67.5001 287.701 65.8001 282.901 65.8001H278.801Z" fill="black"/>
<path d="M278.801 90.7001H276.301C275.801 90.7001 275.301 90.3001 275.301 89.7001V64.1001C275.301 63.6001 275.701 63.1001 276.301 63.1001H282.601C286.301 63.1001 288.901 63.8001 290.701 65.2001C292.401 66.5001 293.301 68.5001 293.301 71.1001V72.7001C293.301 75.2001 292.401 77.1001 290.701 78.3001C288.901 79.6001 286.301 80.2001 282.601 80.2001H279.801V89.6001C279.801 90.2001 279.401 90.7001 278.801 90.7001ZM277.301 88.7001H277.801V79.3001C277.801 78.9001 278.001 78.6001 278.301 78.4001C278.001 78.2001 277.801 77.9001 277.801 77.5001V65.8001C277.801 65.5001 277.901 65.3001 278.101 65.1001H277.301V88.7001ZM288.401 66.0001C288.501 66.1001 288.701 66.2001 288.801 66.3001C290.201 67.4001 290.901 69.0001 290.901 71.2001V72.7001C290.901 74.8001 290.201 76.3001 288.801 77.3001C289.101 77.2001 289.401 77.0001 289.601 76.8001C290.801 75.9001 291.401 74.6001 291.401 72.8001V71.0001C291.401 69.2001 290.901 67.2001 288.401 66.0001ZM279.801 76.6001H282.701C287.901 76.6001 288.901 75.1001 288.901 72.6001V71.1001C288.901 68.8001 288.201 66.7001 282.801 66.7001H279.801V76.6001Z" fill="black"/>
<path d="M295.799 84.1001C295.799 80.9001 298.099 79.2001 302.899 79.2001H308.199V75.1001C308.199 72.7001 306.899 71.7001 303.599 71.7001C300.399 71.7001 299.199 72.7001 299.199 75.1001V76.0001H296.999V75.0001C296.999 71.6001 299.199 70.1001 303.799 70.1001C308.699 70.1001 310.399 71.8001 310.399 75.0001V89.8001H308.699L308.299 88.4001C306.299 89.4001 303.799 89.9001 301.499 89.9001C297.599 89.9001 295.699 88.3001 295.699 85.2001V84.1001H295.799ZM308.199 86.9001V80.7001H302.999C299.599 80.7001 298.099 81.7001 298.099 84.0001V85.1001C298.099 87.3001 299.399 88.3001 302.099 88.3001C303.999 88.3001 306.499 87.8001 308.199 86.9001Z" fill="black"/>
<path d="M301.601 90.9001C299.401 90.9001 297.701 90.4001 296.601 89.5001C295.401 88.5001 294.801 87.1001 294.801 85.2001V84.1001C294.801 81.4001 296.201 78.2001 302.901 78.2001H307.301V75.1001C307.301 73.8001 307.001 72.7001 303.701 72.7001C300.501 72.7001 300.301 73.7001 300.301 75.1001V76.0001C300.301 76.5001 299.901 77.0001 299.301 77.0001H297.101C296.601 77.0001 296.101 76.6001 296.101 76.0001V75.0001C296.101 73.0001 296.801 71.5001 298.201 70.5001C299.501 69.6001 301.301 69.1001 303.901 69.1001C306.501 69.1001 308.401 69.6001 309.701 70.5001C311.001 71.5001 311.601 72.9001 311.601 74.9001V89.7001C311.601 90.2001 311.201 90.7001 310.601 90.7001H308.901C308.501 90.7001 308.101 90.4001 307.901 90.0001L307.801 89.7001C305.901 90.5001 303.701 90.9001 301.601 90.9001ZM309.001 87.6001C309.201 87.7001 309.401 87.9001 309.401 88.2001L309.501 88.6001V75.0001C309.501 73.8001 309.301 72.6001 307.901 71.9001C308.701 72.5001 309.201 73.6001 309.201 75.1001V79.2001C309.201 79.5001 309.101 79.8001 308.801 80.0001C309.001 80.2001 309.201 80.5001 309.201 80.8001V87.0001C309.201 87.1001 309.101 87.4001 309.001 87.6001ZM297.801 81.5001C296.901 82.3001 296.801 83.3001 296.801 84.1001V85.2001C296.801 86.5001 297.201 87.4001 297.901 87.9001C298.001 88.0001 298.101 88.0001 298.201 88.1001C297.401 87.3001 297.101 86.2001 297.101 85.2001V84.0001C297.101 82.9001 297.401 82.1001 297.801 81.5001ZM303.001 81.7001C299.401 81.7001 299.101 82.8001 299.101 84.0001V85.1001C299.101 86.2001 299.301 87.3001 302.101 87.3001C303.901 87.3001 305.801 86.9001 307.301 86.2001V81.6001L303.001 81.7001ZM298.101 75.0001H298.301C298.301 73.8001 298.601 72.9001 299.101 72.3001C298.401 72.8001 298.101 73.7001 298.101 75.0001Z" fill="black"/>
<path d="M331.402 70.5001L323.502 91.8001C321.902 96.1001 319.302 96.4001 316.902 96.4001C316.202 96.4001 315.502 96.4001 315.002 96.2001V94.6001C315.502 94.7001 316.102 94.8001 316.802 94.8001C318.402 94.8001 320.302 94.4001 321.402 91.3001L321.902 89.7001L314.402 70.5001H316.802L323.002 87.1001L328.802 70.5001H331.402Z" fill="black"/>
<path d="M316.901 97.4001C315.901 97.4001 315.301 97.3001 314.701 97.2001C314.301 97.1001 314.001 96.7001 314.001 96.2001V94.6001C314.001 94.3001 314.101 94.0001 314.401 93.8001C314.601 93.6001 315.001 93.6001 315.301 93.6001C315.701 93.7001 316.401 93.7001 316.901 93.7001C318.201 93.7001 319.701 93.5001 320.601 90.9001L321.001 89.6001L313.601 70.7001C313.501 70.4001 313.501 70.1001 313.701 69.8001C313.901 69.5001 314.201 69.4001 314.501 69.4001H316.901C317.301 69.4001 317.701 69.7001 317.801 70.0001L323.101 84.1001L328.001 70.1001C328.101 69.7001 328.501 69.4001 328.901 69.4001H331.401C331.701 69.4001 332.001 69.6001 332.201 69.8001C332.401 70.1001 332.401 70.4001 332.301 70.7001L324.401 92.0001C322.701 96.8001 319.801 97.4001 316.901 97.4001ZM315.901 71.5001L322.901 89.4001C323.001 89.6001 323.001 89.8001 322.901 90.0001L322.401 91.6001C322.201 92.2001 321.901 92.8001 321.601 93.3001C321.901 92.8001 322.201 92.2001 322.501 91.4001L323.901 87.5001C323.701 87.8001 323.401 88.0001 323.001 88.0001C322.601 88.0001 322.201 87.7001 322.101 87.4001L316.101 71.4001H315.901V71.5001ZM329.601 71.5001L324.201 87.0001L329.901 71.5001H329.601Z" fill="black"/>
<path d="M62.6016 73.4V101.2H46.6016L62.6016 73.4Z" fill="black"/>
<path d="M94.2031 73.4V101.2H110.203L94.2031 73.4Z" fill="black"/>
<path d="M79.5031 79.6C82.6031 79.4 85.5031 79.8 87.5031 80.7V61.8L78.3031 45.8L69.2031 61.8V83.6C70.9031 82 75.1031 80 79.5031 79.6Z" fill="black"/>
<path d="M87.6023 87.8C85.7023 86.5 83.4023 85.8 80.8023 85.8C76.3023 85.8 72.7023 88.6 70.7023 92C69.8023 93.5 69.4023 95.8 69.4023 97.7C69.4023 99 69.6023 100.2 70.0023 101.3H87.7023L87.6023 87.8Z" fill="black"/>
</svg>
